<mxfile host="app.diagrams.net" modified="2022-10-24T20:15:16.756Z" agent="5.0 (X11; Ubuntu)" etag="jwMXvpJtSgxJpuel16rK" version="20.5.1" type="github">
  <diagram id="C5RBs43oDa-KdzZeNtuy" name="Page-1">
    <mxGraphModel dx="1588" dy="1996" grid="1" gridSize="10" guides="1" tooltips="1" connect="1" arrows="1" fold="1" page="1" pageScale="1" pageWidth="827" pageHeight="1169" math="0" shadow="0">
      <root>
        <mxCell id="WIyWlLk6GJQsqaUBKTNV-0" />
        <mxCell id="WIyWlLk6GJQsqaUBKTNV-1" parent="WIyWlLk6GJQsqaUBKTNV-0" />
        <mxCell id="QRfMObrJEkA_s3kIC5NH-5" value="Carte" style="swimlane;fontStyle=1;align=center;verticalAlign=top;childLayout=stackLayout;horizontal=1;startSize=26;horizontalStack=0;resizeParent=1;resizeParentMax=0;resizeLast=0;collapsible=1;marginBottom=0;" vertex="1" parent="WIyWlLk6GJQsqaUBKTNV-1">
          <mxGeometry x="26" y="-150" width="230" height="190" as="geometry" />
        </mxCell>
        <mxCell id="QRfMObrJEkA_s3kIC5NH-6" value="+ tailleCases: int" style="text;strokeColor=none;fillColor=none;align=left;verticalAlign=top;spacingLeft=4;spacingRight=4;overflow=hidden;rotatable=0;points=[[0,0.5],[1,0.5]];portConstraint=eastwest;" vertex="1" parent="QRfMObrJEkA_s3kIC5NH-5">
          <mxGeometry y="26" width="230" height="26" as="geometry" />
        </mxCell>
        <mxCell id="QRfMObrJEkA_s3kIC5NH-7" value="" style="line;strokeWidth=1;fillColor=none;align=left;verticalAlign=middle;spacingTop=-1;spacingLeft=3;spacingRight=3;rotatable=0;labelPosition=right;points=[];portConstraint=eastwest;strokeColor=inherit;" vertex="1" parent="QRfMObrJEkA_s3kIC5NH-5">
          <mxGeometry y="52" width="230" height="8" as="geometry" />
        </mxCell>
        <mxCell id="QRfMObrJEkA_s3kIC5NH-8" value="+ setCaseAccessible(int,int): void&#xa;+accederCase(int,int,Direction):void&#xa;+Carte(nLignes:int,nColonnes:int)&#xa;+getters&#xa;+getVoisin():Case&#xa;+voisinExiste():boolean&#xa;" style="text;strokeColor=none;fillColor=none;align=left;verticalAlign=top;spacingLeft=4;spacingRight=4;overflow=hidden;rotatable=0;points=[[0,0.5],[1,0.5]];portConstraint=eastwest;" vertex="1" parent="QRfMObrJEkA_s3kIC5NH-5">
          <mxGeometry y="60" width="230" height="130" as="geometry" />
        </mxCell>
        <mxCell id="QRfMObrJEkA_s3kIC5NH-9" value="Case" style="swimlane;fontStyle=1;align=center;verticalAlign=top;childLayout=stackLayout;horizontal=1;startSize=26;horizontalStack=0;resizeParent=1;resizeParentMax=0;resizeLast=0;collapsible=1;marginBottom=0;" vertex="1" parent="WIyWlLk6GJQsqaUBKTNV-1">
          <mxGeometry x="61" y="270" width="160" height="170" as="geometry" />
        </mxCell>
        <mxCell id="QRfMObrJEkA_s3kIC5NH-10" value="+ ligne : int&#xa;+ colonne : int&#xa;" style="text;strokeColor=none;fillColor=none;align=left;verticalAlign=top;spacingLeft=4;spacingRight=4;overflow=hidden;rotatable=0;points=[[0,0.5],[1,0.5]];portConstraint=eastwest;" vertex="1" parent="QRfMObrJEkA_s3kIC5NH-9">
          <mxGeometry y="26" width="160" height="94" as="geometry" />
        </mxCell>
        <mxCell id="QRfMObrJEkA_s3kIC5NH-11" value="" style="line;strokeWidth=1;fillColor=none;align=left;verticalAlign=middle;spacingTop=-1;spacingLeft=3;spacingRight=3;rotatable=0;labelPosition=right;points=[];portConstraint=eastwest;strokeColor=inherit;" vertex="1" parent="QRfMObrJEkA_s3kIC5NH-9">
          <mxGeometry y="120" width="160" height="8" as="geometry" />
        </mxCell>
        <mxCell id="QRfMObrJEkA_s3kIC5NH-12" value="+ method(type): type&#xa;+ Case(size):void&#xa;" style="text;strokeColor=none;fillColor=none;align=left;verticalAlign=top;spacingLeft=4;spacingRight=4;overflow=hidden;rotatable=0;points=[[0,0.5],[1,0.5]];portConstraint=eastwest;" vertex="1" parent="QRfMObrJEkA_s3kIC5NH-9">
          <mxGeometry y="128" width="160" height="42" as="geometry" />
        </mxCell>
        <mxCell id="QRfMObrJEkA_s3kIC5NH-23" value="Enum NatureTerrain" style="swimlane;fontStyle=0;childLayout=stackLayout;horizontal=1;startSize=26;fillColor=none;horizontalStack=0;resizeParent=1;resizeParentMax=0;resizeLast=0;collapsible=1;marginBottom=0;" vertex="1" parent="WIyWlLk6GJQsqaUBKTNV-1">
          <mxGeometry x="400" y="270" width="140" height="110" as="geometry" />
        </mxCell>
        <mxCell id="QRfMObrJEkA_s3kIC5NH-24" value="Â EAU,FORET,ROCHE, &#xa;TERRAIN_LIBRE,&#xa;HABITAT&#xa;" style="text;strokeColor=none;fillColor=none;align=left;verticalAlign=top;spacingLeft=4;spacingRight=4;overflow=hidden;rotatable=0;points=[[0,0.5],[1,0.5]];portConstraint=eastwest;" vertex="1" parent="WIyWlLk6GJQsqaUBKTNV-1">
          <mxGeometry x="400" y="306" width="140" height="84" as="geometry" />
        </mxCell>
        <mxCell id="QRfMObrJEkA_s3kIC5NH-27" style="edgeStyle=none;rounded=0;orthogonalLoop=1;jettySize=auto;html=1;entryX=0;entryY=0.5;entryDx=0;entryDy=0;" edge="1" parent="WIyWlLk6GJQsqaUBKTNV-1" source="QRfMObrJEkA_s3kIC5NH-10" target="QRfMObrJEkA_s3kIC5NH-24">
          <mxGeometry relative="1" as="geometry" />
        </mxCell>
        <mxCell id="QRfMObrJEkA_s3kIC5NH-28" value="&lt;div&gt;1 ..1&lt;/div&gt;&lt;div&gt;&lt;br&gt;&lt;/div&gt;" style="text;html=1;align=center;verticalAlign=middle;resizable=0;points=[];autosize=1;strokeColor=none;fillColor=none;" vertex="1" parent="WIyWlLk6GJQsqaUBKTNV-1">
          <mxGeometry x="340" y="327" width="50" height="40" as="geometry" />
        </mxCell>
        <mxCell id="QRfMObrJEkA_s3kIC5NH-37" style="edgeStyle=none;rounded=0;orthogonalLoop=1;jettySize=auto;html=1;entryX=0.531;entryY=1.038;entryDx=0;entryDy=0;entryPerimeter=0;" edge="1" parent="WIyWlLk6GJQsqaUBKTNV-1" source="QRfMObrJEkA_s3kIC5NH-33" target="QRfMObrJEkA_s3kIC5NH-12">
          <mxGeometry relative="1" as="geometry" />
        </mxCell>
        <mxCell id="QRfMObrJEkA_s3kIC5NH-33" value="Incendie" style="swimlane;fontStyle=1;align=center;verticalAlign=top;childLayout=stackLayout;horizontal=1;startSize=26;horizontalStack=0;resizeParent=1;resizeParentMax=0;resizeLast=0;collapsible=1;marginBottom=0;" vertex="1" parent="WIyWlLk6GJQsqaUBKTNV-1">
          <mxGeometry x="55" y="570" width="180" height="120" as="geometry" />
        </mxCell>
        <mxCell id="QRfMObrJEkA_s3kIC5NH-34" value="- eauNecessaire : int&#xa;&#xa;" style="text;strokeColor=none;fillColor=none;align=left;verticalAlign=top;spacingLeft=4;spacingRight=4;overflow=hidden;rotatable=0;points=[[0,0.5],[1,0.5]];portConstraint=eastwest;" vertex="1" parent="QRfMObrJEkA_s3kIC5NH-33">
          <mxGeometry y="26" width="180" height="24" as="geometry" />
        </mxCell>
        <mxCell id="QRfMObrJEkA_s3kIC5NH-35" value="" style="line;strokeWidth=1;fillColor=none;align=left;verticalAlign=middle;spacingTop=-1;spacingLeft=3;spacingRight=3;rotatable=0;labelPosition=right;points=[];portConstraint=eastwest;strokeColor=inherit;" vertex="1" parent="QRfMObrJEkA_s3kIC5NH-33">
          <mxGeometry y="50" width="180" height="8" as="geometry" />
        </mxCell>
        <mxCell id="QRfMObrJEkA_s3kIC5NH-36" value="+ Incendie(Case,int): void&#xa;- updateEauNecessaire(int):void&#xa;" style="text;strokeColor=none;fillColor=none;align=left;verticalAlign=top;spacingLeft=4;spacingRight=4;overflow=hidden;rotatable=0;points=[[0,0.5],[1,0.5]];portConstraint=eastwest;" vertex="1" parent="QRfMObrJEkA_s3kIC5NH-33">
          <mxGeometry y="58" width="180" height="62" as="geometry" />
        </mxCell>
        <mxCell id="QRfMObrJEkA_s3kIC5NH-38" value="1..1" style="text;html=1;align=center;verticalAlign=middle;resizable=0;points=[];autosize=1;strokeColor=none;fillColor=none;rotation=95;" vertex="1" parent="WIyWlLk6GJQsqaUBKTNV-1">
          <mxGeometry x="140" y="440" width="40" height="30" as="geometry" />
        </mxCell>
        <mxCell id="QRfMObrJEkA_s3kIC5NH-63" value="" style="group" vertex="1" connectable="0" parent="WIyWlLk6GJQsqaUBKTNV-1">
          <mxGeometry x="300" y="560" width="510" height="390" as="geometry" />
        </mxCell>
        <mxCell id="QRfMObrJEkA_s3kIC5NH-39" value="" style="shape=folder;fontStyle=1;spacingTop=10;tabWidth=40;tabHeight=14;tabPosition=left;html=1;" vertex="1" parent="QRfMObrJEkA_s3kIC5NH-63">
          <mxGeometry width="510" height="390" as="geometry" />
        </mxCell>
        <mxCell id="QRfMObrJEkA_s3kIC5NH-29" value="Robot" style="swimlane;fontStyle=1;align=center;verticalAlign=top;childLayout=stackLayout;horizontal=1;startSize=26;horizontalStack=0;resizeParent=1;resizeParentMax=0;resizeLast=0;collapsible=1;marginBottom=0;" vertex="1" parent="QRfMObrJEkA_s3kIC5NH-63">
          <mxGeometry x="180" y="30" width="160" height="140" as="geometry" />
        </mxCell>
        <mxCell id="QRfMObrJEkA_s3kIC5NH-30" value="# ligne: int&#xa;# colonne: int&#xa;# eauDisponible: int&#xa;" style="text;strokeColor=none;fillColor=none;align=left;verticalAlign=top;spacingLeft=4;spacingRight=4;overflow=hidden;rotatable=0;points=[[0,0.5],[1,0.5]];portConstraint=eastwest;" vertex="1" parent="QRfMObrJEkA_s3kIC5NH-29">
          <mxGeometry y="26" width="160" height="54" as="geometry" />
        </mxCell>
        <mxCell id="QRfMObrJEkA_s3kIC5NH-31" value="" style="line;strokeWidth=1;fillColor=none;align=left;verticalAlign=middle;spacingTop=-1;spacingLeft=3;spacingRight=3;rotatable=0;labelPosition=right;points=[];portConstraint=eastwest;strokeColor=inherit;" vertex="1" parent="QRfMObrJEkA_s3kIC5NH-29">
          <mxGeometry y="80" width="160" height="8" as="geometry" />
        </mxCell>
        <mxCell id="QRfMObrJEkA_s3kIC5NH-32" value="+ deplacer(int,int): void&#xa;+ deverser(int): void&#xa;+ remplir(int): void&#xa;" style="text;strokeColor=none;fillColor=none;align=left;verticalAlign=top;spacingLeft=4;spacingRight=4;overflow=hidden;rotatable=0;points=[[0,0.5],[1,0.5]];portConstraint=eastwest;" vertex="1" parent="QRfMObrJEkA_s3kIC5NH-29">
          <mxGeometry y="88" width="160" height="52" as="geometry" />
        </mxCell>
        <mxCell id="QRfMObrJEkA_s3kIC5NH-40" value="Drone" style="swimlane;fontStyle=1;align=center;verticalAlign=top;childLayout=stackLayout;horizontal=1;startSize=26;horizontalStack=0;resizeParent=1;resizeParentMax=0;resizeLast=0;collapsible=1;marginBottom=0;" vertex="1" parent="QRfMObrJEkA_s3kIC5NH-63">
          <mxGeometry x="20" y="237" width="110" height="86" as="geometry" />
        </mxCell>
        <mxCell id="QRfMObrJEkA_s3kIC5NH-41" value="+ field: type" style="text;strokeColor=none;fillColor=none;align=left;verticalAlign=top;spacingLeft=4;spacingRight=4;overflow=hidden;rotatable=0;points=[[0,0.5],[1,0.5]];portConstraint=eastwest;" vertex="1" parent="QRfMObrJEkA_s3kIC5NH-40">
          <mxGeometry y="26" width="110" height="26" as="geometry" />
        </mxCell>
        <mxCell id="QRfMObrJEkA_s3kIC5NH-42" value="" style="line;strokeWidth=1;fillColor=none;align=left;verticalAlign=middle;spacingTop=-1;spacingLeft=3;spacingRight=3;rotatable=0;labelPosition=right;points=[];portConstraint=eastwest;strokeColor=inherit;" vertex="1" parent="QRfMObrJEkA_s3kIC5NH-40">
          <mxGeometry y="52" width="110" height="8" as="geometry" />
        </mxCell>
        <mxCell id="QRfMObrJEkA_s3kIC5NH-43" value="+ method(type): type" style="text;strokeColor=none;fillColor=none;align=left;verticalAlign=top;spacingLeft=4;spacingRight=4;overflow=hidden;rotatable=0;points=[[0,0.5],[1,0.5]];portConstraint=eastwest;" vertex="1" parent="QRfMObrJEkA_s3kIC5NH-40">
          <mxGeometry y="60" width="110" height="26" as="geometry" />
        </mxCell>
        <mxCell id="QRfMObrJEkA_s3kIC5NH-44" value="RobotARoues" style="swimlane;fontStyle=1;align=center;verticalAlign=top;childLayout=stackLayout;horizontal=1;startSize=26;horizontalStack=0;resizeParent=1;resizeParentMax=0;resizeLast=0;collapsible=1;marginBottom=0;" vertex="1" parent="QRfMObrJEkA_s3kIC5NH-63">
          <mxGeometry x="150" y="237" width="110" height="86" as="geometry" />
        </mxCell>
        <mxCell id="QRfMObrJEkA_s3kIC5NH-45" value="+ field: type" style="text;strokeColor=none;fillColor=none;align=left;verticalAlign=top;spacingLeft=4;spacingRight=4;overflow=hidden;rotatable=0;points=[[0,0.5],[1,0.5]];portConstraint=eastwest;" vertex="1" parent="QRfMObrJEkA_s3kIC5NH-44">
          <mxGeometry y="26" width="110" height="26" as="geometry" />
        </mxCell>
        <mxCell id="QRfMObrJEkA_s3kIC5NH-46" value="" style="line;strokeWidth=1;fillColor=none;align=left;verticalAlign=middle;spacingTop=-1;spacingLeft=3;spacingRight=3;rotatable=0;labelPosition=right;points=[];portConstraint=eastwest;strokeColor=inherit;" vertex="1" parent="QRfMObrJEkA_s3kIC5NH-44">
          <mxGeometry y="52" width="110" height="8" as="geometry" />
        </mxCell>
        <mxCell id="QRfMObrJEkA_s3kIC5NH-47" value="+ method(type): type" style="text;strokeColor=none;fillColor=none;align=left;verticalAlign=top;spacingLeft=4;spacingRight=4;overflow=hidden;rotatable=0;points=[[0,0.5],[1,0.5]];portConstraint=eastwest;" vertex="1" parent="QRfMObrJEkA_s3kIC5NH-44">
          <mxGeometry y="60" width="110" height="26" as="geometry" />
        </mxCell>
        <mxCell id="QRfMObrJEkA_s3kIC5NH-48" value="RobotAChenilles" style="swimlane;fontStyle=1;align=center;verticalAlign=top;childLayout=stackLayout;horizontal=1;startSize=26;horizontalStack=0;resizeParent=1;resizeParentMax=0;resizeLast=0;collapsible=1;marginBottom=0;" vertex="1" parent="QRfMObrJEkA_s3kIC5NH-63">
          <mxGeometry x="270" y="237" width="110" height="86" as="geometry" />
        </mxCell>
        <mxCell id="QRfMObrJEkA_s3kIC5NH-49" value="+ field: type" style="text;strokeColor=none;fillColor=none;align=left;verticalAlign=top;spacingLeft=4;spacingRight=4;overflow=hidden;rotatable=0;points=[[0,0.5],[1,0.5]];portConstraint=eastwest;" vertex="1" parent="QRfMObrJEkA_s3kIC5NH-48">
          <mxGeometry y="26" width="110" height="26" as="geometry" />
        </mxCell>
        <mxCell id="QRfMObrJEkA_s3kIC5NH-50" value="" style="line;strokeWidth=1;fillColor=none;align=left;verticalAlign=middle;spacingTop=-1;spacingLeft=3;spacingRight=3;rotatable=0;labelPosition=right;points=[];portConstraint=eastwest;strokeColor=inherit;" vertex="1" parent="QRfMObrJEkA_s3kIC5NH-48">
          <mxGeometry y="52" width="110" height="8" as="geometry" />
        </mxCell>
        <mxCell id="QRfMObrJEkA_s3kIC5NH-51" value="+ method(type): type" style="text;strokeColor=none;fillColor=none;align=left;verticalAlign=top;spacingLeft=4;spacingRight=4;overflow=hidden;rotatable=0;points=[[0,0.5],[1,0.5]];portConstraint=eastwest;" vertex="1" parent="QRfMObrJEkA_s3kIC5NH-48">
          <mxGeometry y="60" width="110" height="26" as="geometry" />
        </mxCell>
        <mxCell id="QRfMObrJEkA_s3kIC5NH-52" value="RobotAPattes" style="swimlane;fontStyle=1;align=center;verticalAlign=top;childLayout=stackLayout;horizontal=1;startSize=26;horizontalStack=0;resizeParent=1;resizeParentMax=0;resizeLast=0;collapsible=1;marginBottom=0;" vertex="1" parent="QRfMObrJEkA_s3kIC5NH-63">
          <mxGeometry x="390" y="237" width="110" height="86" as="geometry" />
        </mxCell>
        <mxCell id="QRfMObrJEkA_s3kIC5NH-53" value="+ field: type" style="text;strokeColor=none;fillColor=none;align=left;verticalAlign=top;spacingLeft=4;spacingRight=4;overflow=hidden;rotatable=0;points=[[0,0.5],[1,0.5]];portConstraint=eastwest;" vertex="1" parent="QRfMObrJEkA_s3kIC5NH-52">
          <mxGeometry y="26" width="110" height="26" as="geometry" />
        </mxCell>
        <mxCell id="QRfMObrJEkA_s3kIC5NH-54" value="" style="line;strokeWidth=1;fillColor=none;align=left;verticalAlign=middle;spacingTop=-1;spacingLeft=3;spacingRight=3;rotatable=0;labelPosition=right;points=[];portConstraint=eastwest;strokeColor=inherit;" vertex="1" parent="QRfMObrJEkA_s3kIC5NH-52">
          <mxGeometry y="52" width="110" height="8" as="geometry" />
        </mxCell>
        <mxCell id="QRfMObrJEkA_s3kIC5NH-55" value="+ method(type): type" style="text;strokeColor=none;fillColor=none;align=left;verticalAlign=top;spacingLeft=4;spacingRight=4;overflow=hidden;rotatable=0;points=[[0,0.5],[1,0.5]];portConstraint=eastwest;" vertex="1" parent="QRfMObrJEkA_s3kIC5NH-52">
          <mxGeometry y="60" width="110" height="26" as="geometry" />
        </mxCell>
        <mxCell id="QRfMObrJEkA_s3kIC5NH-57" value="Extends" style="endArrow=block;endSize=16;endFill=0;html=1;rounded=0;entryX=-0.025;entryY=-0.077;entryDx=0;entryDy=0;entryPerimeter=0;exitX=0.5;exitY=0;exitDx=0;exitDy=0;" edge="1" parent="QRfMObrJEkA_s3kIC5NH-63" source="QRfMObrJEkA_s3kIC5NH-40" target="QRfMObrJEkA_s3kIC5NH-32">
          <mxGeometry width="160" relative="1" as="geometry">
            <mxPoint x="40" y="214.5" as="sourcePoint" />
            <mxPoint x="200" y="214.5" as="targetPoint" />
          </mxGeometry>
        </mxCell>
        <mxCell id="QRfMObrJEkA_s3kIC5NH-60" value="Extends" style="endArrow=block;endSize=16;endFill=0;html=1;rounded=0;entryX=0.206;entryY=0.981;entryDx=0;entryDy=0;entryPerimeter=0;" edge="1" parent="QRfMObrJEkA_s3kIC5NH-63" target="QRfMObrJEkA_s3kIC5NH-32">
          <mxGeometry width="160" relative="1" as="geometry">
            <mxPoint x="210" y="240" as="sourcePoint" />
            <mxPoint x="251" y="189.99800000000005" as="targetPoint" />
          </mxGeometry>
        </mxCell>
        <mxCell id="QRfMObrJEkA_s3kIC5NH-61" value="Extends" style="endArrow=block;endSize=16;endFill=0;html=1;rounded=0;entryX=0.713;entryY=1;entryDx=0;entryDy=0;entryPerimeter=0;" edge="1" parent="QRfMObrJEkA_s3kIC5NH-63" target="QRfMObrJEkA_s3kIC5NH-32">
          <mxGeometry width="160" relative="1" as="geometry">
            <mxPoint x="300" y="236" as="sourcePoint" />
            <mxPoint x="301.03999999999996" y="176.0039999999999" as="targetPoint" />
          </mxGeometry>
        </mxCell>
        <mxCell id="QRfMObrJEkA_s3kIC5NH-62" value="Extends" style="endArrow=block;endSize=16;endFill=0;html=1;rounded=0;exitX=0.5;exitY=0;exitDx=0;exitDy=0;entryX=1.006;entryY=-0.077;entryDx=0;entryDy=0;entryPerimeter=0;" edge="1" parent="QRfMObrJEkA_s3kIC5NH-63" source="QRfMObrJEkA_s3kIC5NH-52" target="QRfMObrJEkA_s3kIC5NH-32">
          <mxGeometry width="160" relative="1" as="geometry">
            <mxPoint x="360" y="209" as="sourcePoint" />
            <mxPoint x="350" y="150" as="targetPoint" />
          </mxGeometry>
        </mxCell>
        <mxCell id="QRfMObrJEkA_s3kIC5NH-64" style="edgeStyle=none;rounded=0;orthogonalLoop=1;jettySize=auto;html=1;entryX=1;entryY=1;entryDx=0;entryDy=0;" edge="1" parent="WIyWlLk6GJQsqaUBKTNV-1" source="QRfMObrJEkA_s3kIC5NH-29" target="QRfMObrJEkA_s3kIC5NH-9">
          <mxGeometry relative="1" as="geometry" />
        </mxCell>
        <mxCell id="QRfMObrJEkA_s3kIC5NH-65" value="1..1" style="text;html=1;align=center;verticalAlign=middle;resizable=0;points=[];autosize=1;strokeColor=none;fillColor=none;rotation=30;" vertex="1" parent="WIyWlLk6GJQsqaUBKTNV-1">
          <mxGeometry x="240" y="420" width="40" height="30" as="geometry" />
        </mxCell>
        <mxCell id="QRfMObrJEkA_s3kIC5NH-66" value="cases" style="text;html=1;align=center;verticalAlign=middle;resizable=0;points=[];autosize=1;strokeColor=none;fillColor=none;rotation=90;" vertex="1" parent="WIyWlLk6GJQsqaUBKTNV-1">
          <mxGeometry x="135" y="140" width="50" height="30" as="geometry" />
        </mxCell>
        <mxCell id="QRfMObrJEkA_s3kIC5NH-73" value="" style="endArrow=none;html=1;edgeStyle=orthogonalEdgeStyle;rounded=0;exitX=0.5;exitY=1;exitDx=0;exitDy=0;entryX=0.5;entryY=0;entryDx=0;entryDy=0;" edge="1" parent="WIyWlLk6GJQsqaUBKTNV-1" source="QRfMObrJEkA_s3kIC5NH-5" target="QRfMObrJEkA_s3kIC5NH-9">
          <mxGeometry relative="1" as="geometry">
            <mxPoint x="10" y="190" as="sourcePoint" />
            <mxPoint x="140" y="260" as="targetPoint" />
          </mxGeometry>
        </mxCell>
        <mxCell id="QRfMObrJEkA_s3kIC5NH-76" value="1..1" style="text;html=1;align=center;verticalAlign=middle;resizable=0;points=[];autosize=1;strokeColor=none;fillColor=none;rotation=90;" vertex="1" parent="WIyWlLk6GJQsqaUBKTNV-1">
          <mxGeometry x="140" y="50" width="40" height="30" as="geometry" />
        </mxCell>
        <mxCell id="QRfMObrJEkA_s3kIC5NH-77" value="&lt;div&gt;n x m&lt;/div&gt;&lt;div&gt;&lt;br&gt;&lt;/div&gt;" style="text;html=1;align=center;verticalAlign=middle;resizable=0;points=[];autosize=1;strokeColor=none;fillColor=none;rotation=90;" vertex="1" parent="WIyWlLk6GJQsqaUBKTNV-1">
          <mxGeometry x="120" y="230" width="50" height="40" as="geometry" />
        </mxCell>
        <mxCell id="QRfMObrJEkA_s3kIC5NH-78" value="avaibleCasses" style="text;html=1;align=center;verticalAlign=middle;resizable=0;points=[];autosize=1;strokeColor=none;fillColor=none;rotation=-90;" vertex="1" parent="WIyWlLk6GJQsqaUBKTNV-1">
          <mxGeometry x="55" y="150" width="100" height="30" as="geometry" />
        </mxCell>
        <mxCell id="QRfMObrJEkA_s3kIC5NH-79" value="" style="endArrow=none;html=1;edgeStyle=orthogonalEdgeStyle;rounded=0;entryX=0.5;entryY=0;entryDx=0;entryDy=0;" edge="1" parent="WIyWlLk6GJQsqaUBKTNV-1">
          <mxGeometry relative="1" as="geometry">
            <mxPoint x="120" y="40" as="sourcePoint" />
            <mxPoint x="120" y="270" as="targetPoint" />
          </mxGeometry>
        </mxCell>
        <mxCell id="QRfMObrJEkA_s3kIC5NH-80" value="Enum Direction" style="swimlane;fontStyle=0;childLayout=stackLayout;horizontal=1;startSize=26;fillColor=none;horizontalStack=0;resizeParent=1;resizeParentMax=0;resizeLast=0;collapsible=1;marginBottom=0;" vertex="1" parent="WIyWlLk6GJQsqaUBKTNV-1">
          <mxGeometry x="640" y="80" width="90" height="110" as="geometry" />
        </mxCell>
        <mxCell id="QRfMObrJEkA_s3kIC5NH-81" value="NORD,SUD,&#xa;EST,OUEST" style="text;strokeColor=none;fillColor=none;align=left;verticalAlign=top;spacingLeft=4;spacingRight=4;overflow=hidden;rotatable=0;points=[[0,0.5],[1,0.5]];portConstraint=eastwest;" vertex="1" parent="QRfMObrJEkA_s3kIC5NH-80">
          <mxGeometry y="26" width="90" height="84" as="geometry" />
        </mxCell>
        <mxCell id="QRfMObrJEkA_s3kIC5NH-82" value="1..1" style="text;html=1;align=center;verticalAlign=middle;resizable=0;points=[];autosize=1;strokeColor=none;fillColor=none;rotation=90;" vertex="1" parent="WIyWlLk6GJQsqaUBKTNV-1">
          <mxGeometry x="90" y="40" width="40" height="30" as="geometry" />
        </mxCell>
        <mxCell id="QRfMObrJEkA_s3kIC5NH-83" value="&lt;div&gt;n x m&lt;/div&gt;&lt;div&gt;&lt;br&gt;&lt;/div&gt;" style="text;html=1;align=center;verticalAlign=middle;resizable=0;points=[];autosize=1;strokeColor=none;fillColor=none;rotation=90;" vertex="1" parent="WIyWlLk6GJQsqaUBKTNV-1">
          <mxGeometry x="80" y="230" width="50" height="40" as="geometry" />
        </mxCell>
      </root>
    </mxGraphModel>
  </diagram>
</mxfile>
